<svg width="32" height="32" viewBox="0 0 32 32" fill="none" xmlns="http://www.w3.org/2000/svg">
<g id="Frame 3">
<rect width="32" height="32" rx="8" fill="#05BCCA"/>
<path id="Vector" d="M22 23V21.75C22 19.679 20.081 18 17.714 18H14.286C11.919 18 10 19.679 10 21.75V23M19 12C19 12.7956 18.6839 13.5587 18.1213 14.1213C17.5587 14.6839 16.7956 15 16 15C15.2044 15 14.4413 14.6839 13.8787 14.1213C13.3161 13.5587 13 12.7956 13 12C13 11.2044 13.3161 10.4413 13.8787 9.87868C14.4413 9.31607 15.2044 9 16 9C16.7956 9 17.5587 9.31607 18.1213 9.87868C18.6839 10.4413 19 11.2044 19 12Z" stroke="#2C4246" stroke-width="2" stroke-linecap="round" stroke-linejoin="round"/>
</g>
</svg>
