<svg width="64" height="64" viewBox="0 0 64 64" fill="none" xmlns="http://www.w3.org/2000/svg">
<g id="wpf:guitar" clip-path="url(#clip0_10_1269)">
<path id="Vector" d="M58.0775 0.000132047C57.4474 0.000132047 56.7877 0.211824 56.3077 0.691824L55.3083 1.76998L54.8455 1.38598C54.7313 1.26669 54.5942 1.17176 54.4423 1.10691C54.2904 1.04205 54.127 1.00862 53.9619 1.00862C53.7967 1.00862 53.6333 1.04205 53.4814 1.10691C53.3295 1.17176 53.1924 1.26669 53.0782 1.38598C52.9589 1.50018 52.8639 1.63735 52.7991 1.78922C52.7342 1.9411 52.7008 2.10453 52.7008 2.26967C52.7008 2.43481 52.7342 2.59824 52.7991 2.75012C52.8639 2.90199 52.9589 3.03916 53.0782 3.15336L53.4622 3.61613L52.8468 4.23152L52.384 3.84506C52.2698 3.72577 52.1326 3.63084 51.9808 3.56598C51.8289 3.50113 51.6655 3.4677 51.5003 3.4677C51.3352 3.4677 51.1717 3.50113 51.0199 3.56598C50.868 3.63084 50.7308 3.72577 50.6166 3.84506C50.4966 3.95932 50.401 4.09679 50.3357 4.24912C50.2704 4.40145 50.2367 4.56547 50.2367 4.73121C50.2367 4.89695 50.2704 5.06096 50.3357 5.21329C50.401 5.36562 50.4966 5.5031 50.6166 5.61736L51.0006 6.07767L50.5378 6.53798C50.2393 6.83343 50.025 7.2031 49.9168 7.60893C49.8087 8.01475 49.8106 8.44208 49.9225 8.8469L39.1532 19.6161C36.9305 17.6715 33.568 15.3847 29.9225 15.3847C28.3052 15.3847 26.6437 15.8771 24.9994 16.9995C21.3514 19.4931 22.0505 23.2715 19.7686 25.4623C17.2086 27.9238 10.2105 25.9398 3.76862 32.3841C-2.67323 38.8235 0.182158 47.7318 8.384 55.6161C13.3022 60.7312 18.5945 63.7687 23.4609 63.7687C26.3926 63.7687 29.1914 62.6561 31.616 60.2315C38.0578 53.7897 36.0739 46.7964 38.5378 44.2315C40.7286 41.9546 44.5809 42.7275 47.0769 39.0771C50.7372 33.7281 47.2049 28.0715 44.384 24.8469L55.1532 14.0777C55.9655 14.2844 56.8246 14.0998 57.4622 13.4623L57.9225 12.9995L58.3852 13.386C58.4913 13.5055 58.6212 13.6014 58.7667 13.6675C58.9121 13.7337 59.0698 13.7686 59.2295 13.77C59.5761 13.7676 59.9078 13.6288 60.1526 13.3835C60.2719 13.2693 60.3668 13.1321 60.4317 12.9803C60.4965 12.8284 60.53 12.665 60.53 12.4998C60.53 12.3347 60.4965 12.1713 60.4317 12.0194C60.3668 11.8675 60.2719 11.7303 60.1526 11.6161L59.7686 11.1534L60.384 10.538L60.8468 10.9244C60.9528 11.0439 61.0828 11.1399 61.2282 11.206C61.3736 11.2721 61.5313 11.307 61.6911 11.3084C62.0376 11.3061 62.3693 11.1672 62.6142 10.922C62.7334 10.8078 62.8284 10.6706 62.8932 10.5187C62.9581 10.3669 62.9915 10.2034 62.9915 10.0383C62.9915 9.87315 62.9581 9.70971 62.8932 9.55784C62.8284 9.40597 62.7334 9.2688 62.6142 9.15459L62.2302 8.69182L63.3083 7.69244C63.5368 7.46589 63.7181 7.19633 63.8419 6.89932C63.9657 6.60232 64.0294 6.28374 64.0294 5.96198C64.0294 5.64022 63.9657 5.32164 63.8419 5.02463C63.7181 4.72763 63.5368 4.45807 63.3083 4.23152L59.7662 0.689363C59.5462 0.465953 59.283 0.289639 58.9927 0.171151C58.7024 0.0526618 58.391 -0.00552447 58.0775 0.000132047ZM57.9225 2.92444C58.112 2.92444 58.3163 2.93429 58.4615 3.07706C58.6003 3.22224 58.6777 3.41532 58.6777 3.61613C58.6777 3.81694 58.6003 4.01002 58.4615 4.15521L53.5385 9.07829C53.3955 9.22191 53.202 9.30405 52.9994 9.30721C52.7975 9.30174 52.6054 9.21891 52.4628 9.07582C52.3248 8.93076 52.2478 8.7382 52.2478 8.53798C52.2478 8.33776 52.3248 8.14519 52.4628 8.00013L57.3858 3.07706C57.5286 2.93429 57.7354 2.92444 57.9225 2.92444ZM60.384 5.38598C60.5735 5.38598 60.7779 5.39336 60.9231 5.53859C61.0624 5.68349 61.1402 5.87668 61.1402 6.07767C61.1402 6.27866 61.0624 6.47185 60.9231 6.61675L56 11.5398C55.8564 11.6826 55.6634 11.7646 55.4609 11.7687C55.2593 11.7639 55.0673 11.682 54.9243 11.5398C54.7856 11.3946 54.7082 11.2016 54.7082 11.0007C54.7082 10.7999 54.7856 10.6069 54.9243 10.4617L59.8474 5.53859C59.9902 5.39582 60.1969 5.38598 60.384 5.38598ZM29.9225 18.8432C32.2855 18.8432 34.7815 20.4481 36.6917 22.0752L28.4603 30.3066C28.2782 30.2869 28.1108 30.2278 27.9237 30.2278C26.3748 30.233 24.8908 30.8506 23.7956 31.9459C22.7003 33.0411 22.0827 34.5251 22.0775 36.074C22.0827 37.6229 22.7003 39.1069 23.7956 40.2021C24.8908 41.2973 26.3748 41.9149 27.9237 41.9201C29.4726 41.9149 30.9566 41.2973 32.0518 40.2021C33.1471 39.1069 33.7647 37.6229 33.7698 36.074C33.7698 35.8869 33.7108 35.7195 33.6935 35.5349L41.9988 27.2297C44.1354 29.706 46.5477 33.6887 44.2314 37.0758C43.4782 38.1737 42.5305 38.5774 40.8468 39.1509C39.3649 39.6555 37.5114 40.2709 36 41.8438C34.3409 43.5694 33.9717 45.8389 33.5385 48.2291C32.992 51.2297 32.3791 54.6217 29.1545 57.8438C27.4609 59.5374 25.5951 60.3817 23.4609 60.3817C19.7268 60.3817 15.2468 57.8069 10.8455 53.2284C10.8213 53.2018 10.7959 53.1763 10.7692 53.1521C6.2277 48.7928 3.65293 44.3324 3.616 40.6155C3.59139 38.4469 4.43816 36.5663 6.15385 34.8457C9.37847 31.6211 12.7705 31.0057 15.7686 30.4617C18.1588 30.0284 20.4308 29.5829 22.1539 27.9238C23.7145 26.4272 24.3323 24.618 24.8468 23.1534C25.4375 21.4746 25.8068 20.6081 26.9243 19.8451C27.8794 19.1927 28.8689 18.8432 29.9225 18.8432ZM13.6911 40.074C13.4889 40.0784 13.2965 40.1614 13.1545 40.3054L11.616 41.8463C11.475 41.9903 11.396 42.1838 11.396 42.3854C11.396 42.5869 11.475 42.7804 11.616 42.9244L21.0757 52.3841C21.3662 52.6721 21.8634 52.6721 22.1539 52.3841L23.6923 50.8457C23.8314 50.7012 23.9092 50.5084 23.9092 50.3078C23.9092 50.1072 23.8314 49.9145 23.6923 49.77L14.2302 40.3078C14.0882 40.1639 13.8957 40.0809 13.6935 40.0764L13.6911 40.074Z" fill="#C46A2B"/>
</g>
<defs>
<clipPath id="clip0_10_1269">
<rect width="64" height="64" fill="white"/>
</clipPath>
</defs>
</svg>
